<svg width="36" height="36" viewBox="0 0 36 36" fill="none" xmlns="http://www.w3.org/2000/svg">
<path d="M18 0C8.0586 0 0 8.0586 0 18C0 27.9414 8.0586 36 18 36C27.9414 36 36 27.9414 36 18C36 8.0586 27.9414 0 18 0Z" fill="url(#paint0_linear)"/>
<path d="M20.4368 22.7709H25.0952L25.8269 18.0387H20.4368V15.4521C20.4368 13.4865 21.0794 11.7432 22.9181 11.7432H25.8728V7.61398C25.3535 7.54378 24.2555 7.39078 22.181 7.39078C17.8484 7.39078 15.3086 9.67858 15.3086 14.8914V18.0396H10.8545V22.7718H15.3077V35.7786C16.1897 35.91 17.0834 36 18.0005 36C18.8294 36 19.6385 35.9244 20.4368 35.8164V22.7709Z" fill="white"/>
<defs>
<linearGradient id="paint0_linear" x1="5.3937" y1="5.3937" x2="32.9535" y2="32.9535" gradientUnits="userSpaceOnUse">
<stop stop-color="#2AA4F4"/>
<stop offset="1" stop-color="#007AD9"/>
</linearGradient>
</defs>
</svg>
