<svg width="54" height="54" viewBox="0 0 54 54" fill="none" xmlns="http://www.w3.org/2000/svg">
<path d="M37.1739 45H16.8261C12.5217 45 9 41.4783 9 37.1739V16.8261C9 12.5217 12.5217 9 16.8261 9H37.1739C41.4783 9 45 12.5217 45 16.8261V37.1739C45 41.4783 41.4783 45 37.1739 45Z" fill="url(#paint0_radial)"/>
<path d="M26.9997 16.0435C30.5997 16.0435 30.991 16.0435 32.3997 16.1217C33.7301 16.2 34.4344 16.4348 34.904 16.5913C35.5301 16.8261 35.9997 17.1391 36.4692 17.6087C36.9388 18.0783 37.2518 18.5478 37.4866 19.1739C37.6431 19.6435 37.8779 20.3478 37.9562 21.6783C37.9562 23.0087 37.9562 23.4 37.9562 27C37.9562 30.6 37.9562 30.9913 37.8779 32.4C37.7997 33.7304 37.5649 34.4348 37.4084 34.9043C37.1736 35.5304 36.8605 36 36.391 36.4696C35.9214 36.9391 35.4518 37.2522 34.8257 37.487C34.3562 37.6435 33.6518 37.8783 32.3214 37.9565C30.991 37.9565 30.5997 37.9565 26.9997 37.9565C23.3997 37.9565 23.0084 37.9565 21.5997 37.8783C20.2692 37.8 19.5649 37.5652 19.0953 37.4087C18.4692 37.1739 17.9997 36.8609 17.5301 36.3913C17.0605 35.9217 16.7475 35.4522 16.5127 34.8261C16.3562 34.3565 16.1214 33.6522 16.0431 32.3217C16.0431 30.9913 16.0431 30.6 16.0431 27C16.0431 23.4 16.0431 23.0087 16.1214 21.6C16.1997 20.2696 16.4344 19.5652 16.591 19.0956C16.8257 18.4696 17.1388 18 17.6084 17.5304C18.0779 17.0609 18.5475 16.7478 19.1736 16.513C19.6431 16.3565 20.3475 16.1217 21.6779 16.0435C23.0084 16.0435 23.3997 16.0435 26.9997 16.0435ZM26.9997 13.6956C23.3997 13.6956 22.9301 13.6956 21.5214 13.7739C20.1127 13.8522 19.1736 14.087 18.3127 14.4C17.4518 14.713 16.6692 15.1826 15.9649 15.9652C15.2605 16.7478 14.791 17.4522 14.3997 18.313C14.0866 19.1739 13.8518 20.113 13.7736 21.5217C13.6953 22.9304 13.6953 23.4 13.6953 27C13.6953 30.6 13.6953 31.0696 13.7736 32.4783C13.8518 33.887 14.0866 34.8261 14.3997 35.687C14.7127 36.5478 15.1823 37.3304 15.9649 38.0348C16.6692 38.7391 17.4518 39.2087 18.3127 39.6C19.1736 39.913 20.1127 40.1478 21.5214 40.2261C22.9301 40.3043 23.3997 40.3043 26.9997 40.3043C30.5997 40.3043 31.0692 40.3043 32.4779 40.2261C33.8866 40.1478 34.8257 39.913 35.6866 39.6C36.5475 39.287 37.3301 38.8174 38.0344 38.0348C38.7388 37.3304 39.2084 36.5478 39.5997 35.687C39.9127 34.8261 40.1475 33.887 40.2257 32.4783C40.304 31.0696 40.304 30.6 40.304 27C40.304 23.4 40.304 22.9304 40.2257 21.5217C40.1475 20.113 39.9127 19.1739 39.5997 18.313C39.2866 17.4522 38.8171 16.6696 38.0344 15.9652C37.2518 15.2609 36.5475 14.7913 35.6866 14.4C34.8257 14.087 33.8866 13.8522 32.4779 13.7739C31.0692 13.6956 30.5997 13.6956 26.9997 13.6956Z" fill="white"/>
<path d="M26.9995 19.9565C23.0865 19.9565 19.9561 23.0869 19.9561 27C19.9561 30.913 23.0865 34.0435 26.9995 34.0435C30.9126 34.0435 34.043 30.913 34.043 27C34.043 23.0869 30.9126 19.9565 26.9995 19.9565ZM26.9995 31.6956C24.4169 31.6956 22.3039 29.5826 22.3039 27C22.3039 24.4174 24.4169 22.3043 26.9995 22.3043C29.5821 22.3043 31.6952 24.4174 31.6952 27C31.6952 29.5826 29.5821 31.6956 26.9995 31.6956Z" fill="white"/>
<path d="M34.0437 21.5217C34.9082 21.5217 35.609 20.821 35.609 19.9565C35.609 19.0921 34.9082 18.3913 34.0437 18.3913C33.1793 18.3913 32.4785 19.0921 32.4785 19.9565C32.4785 20.821 33.1793 21.5217 34.0437 21.5217Z" fill="white"/>
<defs>
<radialGradient id="paint0_radial" cx="0" cy="0" r="1" gradientUnits="userSpaceOnUse" gradientTransform="translate(16.4418 52.2748) rotate(-49.945) scale(54.5052 36.0053)">
<stop offset="0.073" stop-color="#EACC7B"/>
<stop offset="0.184" stop-color="#ECAA59"/>
<stop offset="0.307" stop-color="#EF802E"/>
<stop offset="0.358" stop-color="#EF6D3A"/>
<stop offset="0.46" stop-color="#F04B50"/>
<stop offset="0.516" stop-color="#F03E58"/>
<stop offset="0.689" stop-color="#DB359E"/>
<stop offset="0.724" stop-color="#CE37A4"/>
<stop offset="0.789" stop-color="#AC3CB4"/>
<stop offset="0.877" stop-color="#7544CF"/>
<stop offset="0.98" stop-color="#2B4FF2"/>
</radialGradient>
</defs>
</svg>
