<svg width="32" height="33" viewBox="0 0 32 33" fill="none" xmlns="http://www.w3.org/2000/svg">
<path opacity="0.1" fill-rule="evenodd" clip-rule="evenodd" d="M0 16.5578C0 7.91759 7.16344 0.91333 16 0.91333C24.8366 0.91333 32 7.91759 32 16.5578C32 25.198 24.8366 32.2022 16 32.2022C7.16344 32.2022 0 25.198 0 16.5578Z" fill="#0F6EFF"/>
<path fill-rule="evenodd" clip-rule="evenodd" d="M16.0009 8.21411C13.6834 8.21411 13.3925 8.22402 12.4823 8.26452C11.5739 8.3052 10.9538 8.44583 10.4112 8.65216C9.84993 8.86527 9.37384 9.15035 8.89952 9.6143C8.42485 10.0781 8.13329 10.5436 7.91462 11.0922C7.70307 11.6229 7.55906 12.2294 7.51818 13.1173C7.47746 14.0073 7.4668 14.2919 7.4668 16.5579C7.4668 18.8239 7.47711 19.1075 7.51835 19.9975C7.56013 20.8857 7.70395 21.492 7.9148 22.0226C8.13294 22.5713 8.4245 23.0369 8.89899 23.5006C9.37313 23.9648 9.84922 24.2505 10.4101 24.4636C10.9531 24.67 11.5733 24.8106 12.4816 24.8513C13.3918 24.8918 13.6825 24.9017 15.9999 24.9017C18.3176 24.9017 18.6075 24.8918 19.5178 24.8513C20.4262 24.8106 21.047 24.67 21.59 24.4636C22.151 24.2505 22.6264 23.9648 23.1006 23.5006C23.5752 23.0369 23.8668 22.5713 24.0855 22.0227C24.2952 21.492 24.4392 20.8855 24.4819 19.9976C24.5228 19.1076 24.5335 18.8239 24.5335 16.5579C24.5335 14.2919 24.5228 14.0075 24.4819 13.1175C24.4392 12.2292 24.2952 11.6229 24.0855 11.0924C23.8668 10.5436 23.5752 10.0781 23.1006 9.6143C22.6259 9.15018 22.1512 8.8651 21.5894 8.65216C21.0454 8.44583 20.425 8.3052 19.5165 8.26452C18.6063 8.22402 18.3165 8.21411 15.9983 8.21411H16.0009ZM15.2354 9.71771C15.4626 9.71736 15.7161 9.71771 16.0009 9.71771C18.2793 9.71771 18.5494 9.7257 19.4491 9.76569C20.2811 9.80288 20.7327 9.93882 21.0335 10.053C21.4317 10.2043 21.7156 10.385 22.0141 10.6771C22.3128 10.9691 22.4977 11.2472 22.6527 11.6366C22.7695 11.9304 22.9087 12.3719 22.9466 13.1854C22.9875 14.065 22.9963 14.3292 22.9963 16.556C22.9963 18.7827 22.9875 19.0469 22.9466 19.9265C22.9085 20.74 22.7695 21.1816 22.6527 21.4753C22.498 21.8647 22.3128 22.142 22.0141 22.4338C21.7154 22.7259 21.4319 22.9066 21.0335 23.0579C20.733 23.1726 20.2811 23.3082 19.4491 23.3454C18.5495 23.3854 18.2793 23.3941 16.0009 23.3941C13.7223 23.3941 13.4522 23.3854 12.5527 23.3454C11.7207 23.3078 11.2691 23.1719 10.9681 23.0577C10.5699 22.9065 10.2855 22.7257 9.98679 22.4336C9.68812 22.1416 9.50323 21.8642 9.3482 21.4746C9.2314 21.1809 9.0922 20.7393 9.05433 19.9258C9.01344 19.0462 9.00527 18.782 9.00527 16.5539C9.00527 14.3257 9.01344 14.0629 9.05433 13.1833C9.09238 12.3698 9.2314 11.9283 9.3482 11.6342C9.50287 11.2448 9.68812 10.9667 9.98679 10.6746C10.2855 10.3826 10.5699 10.2018 10.9681 10.0502C11.2689 9.93552 11.7207 9.79993 12.5527 9.76256C13.3399 9.72779 13.645 9.71736 15.2354 9.71562V9.71771ZM20.556 11.1031C19.9906 11.1031 19.532 11.5511 19.532 12.104C19.532 12.6568 19.9906 13.1053 20.556 13.1053C21.1213 13.1053 21.58 12.6568 21.58 12.104C21.58 11.5513 21.1213 11.1031 20.556 11.1031ZM16.0009 12.273C13.5808 12.273 11.6187 14.1915 11.6187 16.5579C11.6187 18.9242 13.5808 20.8419 16.0009 20.8419C18.4211 20.8419 20.3825 18.9242 20.3825 16.5579C20.3825 14.1915 18.4211 12.273 16.0009 12.273ZM16.0009 13.7766C17.5718 13.7766 18.8454 15.0218 18.8454 16.5579C18.8454 18.0938 17.5718 19.3391 16.0009 19.3391C14.4299 19.3391 13.1564 18.0938 13.1564 16.5579C13.1564 15.0218 14.4299 13.7766 16.0009 13.7766Z" fill="#0F6EFF"/>
</svg>
