<svg width="167" height="21" viewBox="0 0 167 21" fill="none" xmlns="http://www.w3.org/2000/svg">
<path d="M7.82 0.86C3.78 0.86 0.7 3.82 0.7 8C0.7 12.18 3.78 15.12 7.84 15.12C11.56 15.12 14.1 12.52 14.66 9.68V7.24H7.1V9.38H11.9C11.48 11.36 10.1 12.6 7.94 12.6C5.34 12.6 3.58 10.84 3.58 8C3.58 5.22 5.32 3.44 7.82 3.44C9.3 3.44 10.46 4.06 11.1 5.24H14.32C13.42 2.44 10.94 0.86 7.82 0.86ZM21.4916 6.04C22.9316 6.04 24.0916 6.96 24.1316 8.42H18.8716C19.0916 6.9 20.1516 6.04 21.4916 6.04ZM26.7516 11.52H23.7316C23.3716 12.26 22.7116 12.86 21.5116 12.86C20.1116 12.86 18.9916 11.94 18.8516 10.3H26.9516C27.0116 9.94 27.0316 9.58 27.0316 9.22C27.0316 5.92 24.7716 3.74 21.5716 3.74C18.2916 3.74 16.0116 5.96 16.0116 9.46C16.0116 12.94 18.3516 15.18 21.5716 15.18C24.3116 15.18 26.1516 13.56 26.7516 11.52ZM29.5153 11.56C29.5153 14.1 30.9353 15 33.0553 15H34.8153V12.64H33.5153C32.6353 12.64 32.3353 12.32 32.3353 11.58V6.22H34.8153V3.92H32.3353V1.18H29.5153V3.92H28.1953V6.22H29.5153V11.56ZM49.6948 1.02H41.5948V15H49.6948V12.72H44.3948V9.02H49.0948V6.8H44.3948V3.3H49.6948V1.02ZM51.5194 9.42C51.5194 12.88 53.7594 15.18 56.5594 15.18C58.3194 15.18 59.5794 14.34 60.2394 13.38V15H63.0594V3.92H60.2394V5.5C59.5794 4.58 58.3594 3.74 56.5794 3.74C53.7594 3.74 51.5194 5.96 51.5194 9.42ZM60.2394 9.46C60.2394 11.56 58.8394 12.72 57.2994 12.72C55.7994 12.72 54.3794 11.52 54.3794 9.42C54.3794 7.32 55.7994 6.2 57.2994 6.2C58.8394 6.2 60.2394 7.36 60.2394 9.46ZM68.5941 9.48C68.5941 7.34 69.5941 6.7 71.2541 6.7H71.9941V3.76C70.4541 3.76 69.2941 4.5 68.5941 5.64V3.92H65.7941V15H68.5941V9.48ZM73.88 15H76.68V0.2H73.88V15ZM84.1664 11.66L81.3064 3.92H78.1664L82.6064 14.72L80.2064 20.24H83.1864L90.0464 3.92H87.0664L84.1664 11.66ZM105.801 15H108.761L103.741 1.02H100.481L95.4614 15H98.4014L99.3214 12.34H104.881L105.801 15ZM104.121 10.1H100.081L102.101 4.26L104.121 10.1ZM109.918 9.46C109.918 12.94 112.198 15.18 115.398 15.18C118.158 15.18 120.018 13.62 120.618 11.26H117.598C117.258 12.26 116.538 12.78 115.378 12.78C113.818 12.78 112.778 11.62 112.778 9.46C112.778 7.3 113.818 6.12 115.378 6.12C116.538 6.12 117.278 6.72 117.598 7.66H120.618C120.018 5.18 118.158 3.74 115.398 3.74C112.198 3.74 109.918 5.98 109.918 9.46ZM121.949 9.46C121.949 12.94 124.229 15.18 127.429 15.18C130.189 15.18 132.049 13.62 132.649 11.26H129.629C129.289 12.26 128.569 12.78 127.409 12.78C125.849 12.78 124.809 11.62 124.809 9.46C124.809 7.3 125.849 6.12 127.409 6.12C128.569 6.12 129.309 6.72 129.629 7.66H132.649C132.049 5.18 130.189 3.74 127.429 3.74C124.229 3.74 121.949 5.98 121.949 9.46ZM139.46 6.04C140.9 6.04 142.06 6.96 142.1 8.42H136.84C137.06 6.9 138.12 6.04 139.46 6.04ZM144.72 11.52H141.7C141.34 12.26 140.68 12.86 139.48 12.86C138.08 12.86 136.96 11.94 136.82 10.3H144.92C144.98 9.94 145 9.58 145 9.22C145 5.92 142.74 3.74 139.54 3.74C136.26 3.74 133.98 5.96 133.98 9.46C133.98 12.94 136.32 15.18 139.54 15.18C142.28 15.18 144.12 13.56 144.72 11.52ZM155.644 11.84C155.564 7.78 149.424 9.04 149.424 7.02C149.424 6.38 149.964 5.96 151.004 5.96C152.104 5.96 152.784 6.54 152.864 7.4H155.544C155.384 5.2 153.764 3.74 151.084 3.74C148.344 3.74 146.704 5.22 146.704 7.06C146.704 11.12 152.964 9.86 152.964 11.84C152.964 12.48 152.364 12.98 151.264 12.98C150.144 12.98 149.364 12.34 149.264 11.5H146.444C146.564 13.56 148.504 15.18 151.284 15.18C153.984 15.18 155.644 13.74 155.644 11.84ZM166.543 11.84C166.463 7.78 160.323 9.04 160.323 7.02C160.323 6.38 160.863 5.96 161.903 5.96C163.003 5.96 163.683 6.54 163.763 7.4H166.443C166.283 5.2 164.663 3.74 161.983 3.74C159.243 3.74 157.603 5.22 157.603 7.06C157.603 11.12 163.863 9.86 163.863 11.84C163.863 12.48 163.263 12.98 162.163 12.98C161.043 12.98 160.263 12.34 160.163 11.5H157.343C157.463 13.56 159.403 15.18 162.183 15.18C164.883 15.18 166.543 13.74 166.543 11.84Z" fill="#0F6EFF"/>
</svg>
