<svg width="18" height="17" viewBox="0 0 18 17" fill="none" xmlns="http://www.w3.org/2000/svg">
<path fill-rule="evenodd" clip-rule="evenodd" d="M17.0303 0.864291C17.2341 1.06152 17.3031 1.35429 17.2079 1.61755L11.9579 16.1388C11.8563 16.4198 11.5878 16.6123 11.2806 16.6244C10.9733 16.6366 10.6895 16.4659 10.5646 16.1939L7.6818 9.91447L1.1954 7.12363C0.914389 7.00272 0.738092 6.728 0.750627 6.43055C0.763163 6.13309 0.961991 5.87319 1.25224 5.77484L16.2522 0.692394C16.5242 0.600253 16.8266 0.667064 17.0303 0.864291ZM9.14456 9.5252L11.167 13.9306L14.7064 4.14087L9.14456 9.5252ZM13.6457 3.11406L3.53331 6.54045L8.0839 8.49839L13.6457 3.11406Z" fill="#0F6EFF"/>
</svg>
