<svg width="1361" height="380" viewBox="0 0 1361 380" fill="none" xmlns="http://www.w3.org/2000/svg">
<circle cx="1338" cy="104" r="15" fill="#0F6EFF"/>
<circle cx="403" cy="83" r="15" fill="#5489FF"/>
<circle cx="5" cy="233" r="5" fill="#0F6EFF"/>
<circle cx="745.5" cy="7.5" r="7.5" fill="#FFB146"/>
<path d="M1345.07 223L1352 211L1358.93 223H1345.07Z" stroke="#FFA121"/>
<path d="M25.0718 82L32 70L38.9282 82H25.0718Z" stroke="#FFA121"/>
<path d="M1128.07 246L1135 234L1141.93 246H1128.07Z" stroke="#FFA121"/>
<circle cx="1189.5" cy="372.5" r="7.5" fill="#FFB146"/>
<path d="M857.072 339L864 327L870.928 339H857.072Z" stroke="#FFA121"/>
<path d="M294.072 360L301 348L307.928 360H294.072Z" stroke="#FFA121"/>
<mask id="mask0" mask-type="alpha" maskUnits="userSpaceOnUse" x="126" y="30" width="1110" height="288">
<rect x="126" y="30" width="1110" height="288" rx="16" fill="#C4C4C4"/>
</mask>
<g mask="url(#mask0)">
<rect x="126" y="30" width="1110" height="288" rx="16" fill="#0F6EFF"/>
<path opacity="0.15" d="M856.287 236.714C738.471 152.077 576.106 250.981 447.429 184C380.479 149.15 366.901 117.702 318.858 65.7143C288.043 32.3692 285.105 26.5642 255.858 2.71432C226.61 -21.1356 173.572 -48.7142 173.572 -48.7142V-136.143H1558.29V446.286H1227.86C1227.86 446.286 1051.37 449.035 966.858 376.857C915.455 332.958 916.597 280.041 856.287 236.714Z" fill="white"/>
<path opacity="0.15" d="M903.857 208.714C786.041 124.077 623.676 244.838 495 177.857C428.049 143.007 393 19.5 373.5 -17C362.815 -37 346.5 -55 320 -69C293.5 -83 221.143 -76.7142 221.143 -76.7142V-164.143H1605.86V381.714H1296C1296 381.714 1078.71 388.714 1008 338.571C946.285 294.81 964.168 252.041 903.857 208.714Z" fill="white"/>
</g>
<path d="M424.207 145.006V107H483.793V145.006H424.207Z" fill="#FF9201"/>
<path d="M483.793 145.006L458.906 125.732C455.865 123.641 451.838 123.63 448.785 125.702C440.234 131.507 424.207 145.006 424.207 145.006H483.793Z" fill="#BCDCFF"/>
<path d="M449.761 125.144H449.586L424.206 107.006L424.207 145.006C424.207 145.006 440.234 131.507 448.784 125.702C449.099 125.489 449.429 125.313 449.761 125.144Z" fill="#A7D0FE"/>
<path d="M458.414 125.144H457.892C458.237 125.32 458.579 125.508 458.905 125.732L483.793 145.006V107.006L458.414 125.144Z" fill="#A7D0FE"/>
<path d="M483.793 107.006L458.906 126.28C455.865 128.371 451.838 128.382 448.785 126.31C440.234 120.505 424.207 107.006 424.207 107.006H483.793Z" fill="white"/>
<g clip-path="url(#clip0)">
<path d="M459.862 156.739L414.274 112.173C408.583 106.608 399.417 106.608 393.725 112.173L348.138 156.739V228H459.862V156.739Z" fill="#FF9201"/>
<rect x="364" y="124" width="80" height="104" rx="4" fill="white"/>
<g clip-path="url(#clip1)">
<path fill-rule="evenodd" clip-rule="evenodd" d="M384 159.5C388.142 159.5 391.5 156.142 391.5 152C391.5 147.858 388.142 144.5 384 144.5C379.858 144.5 376.5 147.858 376.5 152C376.5 156.142 379.858 159.5 384 159.5ZM384 164C390.627 164 396 158.627 396 152C396 145.373 390.627 140 384 140C377.373 140 372 145.373 372 152C372 158.627 377.373 164 384 164Z" fill="#2EC5CE"/>
<rect x="400" y="145" width="36" height="6" rx="0.5" fill="#2EC5CE"/>
<rect opacity="0.4" x="400" y="154" width="16" height="5" rx="0.5" fill="#2EC5CE"/>
</g>
<path d="M459.862 228L413.198 191.861C407.496 187.941 399.947 187.92 394.222 191.805C378.187 202.69 348.138 228 348.138 228H459.862Z" fill="#FFDC81"/>
<path d="M396.051 190.759H395.724L348.138 157.655V228C348.138 228 378.187 202.69 394.22 191.806C394.809 191.406 395.428 191.075 396.051 190.759Z" fill="#FFCA00"/>
<path d="M412.276 190.759H411.298C411.945 191.09 412.587 191.441 413.197 191.861L459.863 228V157.655L412.276 190.759Z" fill="#FFB800"/>
</g>
<path d="M313.207 241.006V203H372.793V241.006H313.207Z" fill="#FF9201"/>
<path d="M372.793 241.006L347.906 221.732C344.865 219.641 340.838 219.63 337.785 221.702C329.234 227.507 313.207 241.006 313.207 241.006H372.793Z" fill="#BCDCFF"/>
<path d="M338.761 221.144H338.586L313.206 203.006L313.207 241.006C313.207 241.006 329.234 227.507 337.784 221.702C338.099 221.489 338.429 221.313 338.761 221.144Z" fill="#A7D0FE"/>
<path d="M347.414 221.144H346.892C347.237 221.32 347.579 221.508 347.905 221.732L372.793 241.006V203.006L347.414 221.144Z" fill="#A7D0FE"/>
<path d="M372.793 203.006L347.906 222.28C344.865 224.371 340.838 224.382 337.785 222.31C329.234 216.505 313.207 203.006 313.207 203.006H372.793Z" fill="white"/>
<circle cx="456" cy="216" r="24" fill="white"/>
<g opacity="0.4">
<path d="M462 208.706C462 212.252 459.122 215.126 455.571 215.126C452.021 215.126 449.143 212.252 449.143 208.706C449.143 205.16 452.021 202.286 455.571 202.286C459.122 202.286 462 205.16 462 208.706Z" fill="#2EC5CE"/>
<path d="M468 229.679C468 229.679 459.913 229.759 454.714 229.679C450.517 229.614 444 229.679 444 229.679C444 229.679 445.714 216.838 456 216.838C466.286 216.838 468 229.679 468 229.679Z" fill="#2EC5CE"/>
</g>
<circle cx="474" cy="198" r="10" fill="#2EC5CE"/>
<path fill-rule="evenodd" clip-rule="evenodd" d="M474 193.333C474.322 193.333 474.583 193.594 474.583 193.917V197.417H478.083C478.405 197.417 478.666 197.678 478.666 198C478.666 198.322 478.405 198.583 478.083 198.583H474.583V202.083C474.583 202.405 474.322 202.667 474 202.667C473.678 202.667 473.416 202.405 473.416 202.083V198.583H469.916C469.594 198.583 469.333 198.322 469.333 198C469.333 197.678 469.594 197.417 469.916 197.417H473.416V193.917C473.416 193.594 473.678 193.333 474 193.333Z" fill="white"/>
<path d="M624.32 110.76C624.32 113.12 622.72 114.44 620 114.44H614.36V106.92H619.88C622.6 106.92 624.32 108.36 624.32 110.76ZM623.64 99.12C623.64 101.4 622.12 102.6 619.48 102.6H614.36V95.6H619.48C622.12 95.6 623.64 96.88 623.64 99.12ZM630 111.44C630 108.16 627.76 105.24 624.6 104.68C627.32 103.8 629.36 101.68 629.36 98.28C629.36 94.12 626.12 91.08 620.28 91.08H608.76V119H620.8C626.6 119 630 115.88 630 111.44ZM643.983 101.08C646.863 101.08 649.183 102.92 649.263 105.84H638.743C639.183 102.8 641.303 101.08 643.983 101.08ZM654.503 112.04H648.463C647.743 113.52 646.423 114.72 644.023 114.72C641.223 114.72 638.983 112.88 638.703 109.6H654.903C655.023 108.88 655.063 108.16 655.063 107.44C655.063 100.84 650.543 96.48 644.143 96.48C637.583 96.48 633.023 100.92 633.023 107.92C633.023 114.88 637.703 119.36 644.143 119.36C649.623 119.36 653.303 116.12 654.503 112.04ZM690.082 107.92C690.082 100.92 685.082 96.48 678.682 96.48C672.282 96.48 667.282 100.92 667.282 107.92C667.282 114.88 672.122 119.36 678.522 119.36C684.962 119.36 690.082 114.88 690.082 107.92ZM672.962 107.92C672.962 103.48 675.642 101.36 678.602 101.36C681.562 101.36 684.322 103.48 684.322 107.92C684.322 112.32 681.482 114.48 678.522 114.48C675.522 114.48 672.962 112.32 672.962 107.92ZM709.71 119H715.31V106C715.31 99.88 711.63 96.52 706.47 96.52C703.63 96.52 701.23 97.72 699.79 99.6V96.84H694.19V119H699.79V106.76C699.79 103.2 701.75 101.28 704.79 101.28C707.75 101.28 709.71 103.2 709.71 106.76V119ZM730.155 101.08C733.035 101.08 735.355 102.92 735.435 105.84H724.915C725.355 102.8 727.475 101.08 730.155 101.08ZM740.675 112.04H734.635C733.915 113.52 732.595 114.72 730.195 114.72C727.395 114.72 725.155 112.88 724.875 109.6H741.075C741.195 108.88 741.235 108.16 741.235 107.44C741.235 100.84 736.715 96.48 730.315 96.48C723.755 96.48 719.195 100.92 719.195 107.92C719.195 114.88 723.875 119.36 730.315 119.36C735.795 119.36 739.475 116.12 740.675 112.04ZM776.254 107.92C776.254 100.92 771.254 96.48 764.854 96.48C758.454 96.48 753.454 100.92 753.454 107.92C753.454 114.88 758.294 119.36 764.694 119.36C771.134 119.36 776.254 114.88 776.254 107.92ZM759.134 107.92C759.134 103.48 761.814 101.36 764.774 101.36C767.734 101.36 770.494 103.48 770.494 107.92C770.494 112.32 767.654 114.48 764.694 114.48C761.694 114.48 759.134 112.32 759.134 107.92ZM780.962 119H786.642V101.44H790.522V96.84H786.642V95.92C786.642 93.44 787.562 92.56 790.282 92.64V87.92C784.042 87.76 780.962 90.28 780.962 95.72V96.84H778.442V101.44H780.962V119ZM804.562 112.12C804.562 117.2 807.402 119 811.642 119H815.162V114.28H812.562C810.802 114.28 810.202 113.64 810.202 112.16V101.44H815.162V96.84H810.202V91.36H804.562V96.84H801.922V101.44H804.562V112.12ZM819.19 119H824.79V106.76C824.79 103.2 826.75 101.28 829.79 101.28C832.75 101.28 834.71 103.2 834.71 106.76V119H840.31V106C840.31 99.88 836.67 96.52 831.67 96.52C828.71 96.52 826.23 97.72 824.79 99.6V89.4H819.19V119ZM855.155 101.08C858.035 101.08 860.355 102.92 860.435 105.84H849.915C850.355 102.8 852.475 101.08 855.155 101.08ZM865.675 112.04H859.635C858.915 113.52 857.595 114.72 855.195 114.72C852.395 114.72 850.155 112.88 849.875 109.6H866.075C866.195 108.88 866.235 108.16 866.235 107.44C866.235 100.84 861.715 96.48 855.315 96.48C848.755 96.48 844.195 100.92 844.195 107.92C844.195 114.88 848.875 119.36 855.315 119.36C860.795 119.36 864.475 116.12 865.675 112.04ZM880.454 119H886.134V101.44H890.014V96.84H886.134V95.92C886.134 93.44 887.054 92.56 889.774 92.64V87.92C883.534 87.76 880.454 90.28 880.454 95.72V96.84H877.934V101.44H880.454V119ZM893.643 119H899.243V96.84H893.643V119ZM896.483 94.2C898.443 94.2 899.923 92.76 899.923 90.92C899.923 89.08 898.443 87.64 896.483 87.64C894.483 87.64 893.043 89.08 893.043 90.92C893.043 92.76 894.483 94.2 896.483 94.2ZM910.376 107.96C910.376 103.68 912.376 102.4 915.696 102.4H917.176V96.52C914.096 96.52 911.776 98 910.376 100.28V96.84H904.776V119H910.376V107.96ZM938.148 112.68C937.988 104.56 925.708 107.08 925.708 103.04C925.708 101.76 926.788 100.92 928.868 100.92C931.068 100.92 932.428 102.08 932.588 103.8H937.948C937.628 99.4 934.388 96.48 929.028 96.48C923.548 96.48 920.268 99.44 920.268 103.12C920.268 111.24 932.788 108.72 932.788 112.68C932.788 113.96 931.588 114.96 929.388 114.96C927.148 114.96 925.588 113.68 925.388 112H919.748C919.988 116.12 923.868 119.36 929.428 119.36C934.828 119.36 938.148 116.48 938.148 112.68ZM943.624 112.12C943.624 117.2 946.464 119 950.704 119H954.224V114.28H951.624C949.864 114.28 949.264 113.64 949.264 112.16V101.44H954.224V96.84H949.264V91.36H943.624V96.84H940.984V101.44H943.624V112.12ZM968.663 112.12C968.663 117.2 971.503 119 975.743 119H979.263V114.28H976.663C974.903 114.28 974.303 113.64 974.303 112.16V101.44H979.263V96.84H974.303V91.36H968.663V96.84H966.023V101.44H968.663V112.12ZM1004.69 107.92C1004.69 100.92 999.691 96.48 993.291 96.48C986.891 96.48 981.891 100.92 981.891 107.92C981.891 114.88 986.731 119.36 993.131 119.36C999.571 119.36 1004.69 114.88 1004.69 107.92ZM987.571 107.92C987.571 103.48 990.251 101.36 993.211 101.36C996.171 101.36 998.931 103.48 998.931 107.92C998.931 112.32 996.091 114.48 993.131 114.48C990.131 114.48 987.571 112.32 987.571 107.92ZM608.76 173H614.36V163.56L621.88 173H629.16L619.32 161.96L629.08 150.84H621.8L614.36 160.24V143.4H608.76V173ZM647.639 173H653.239V160C653.239 153.88 649.559 150.52 644.399 150.52C641.559 150.52 639.159 151.72 637.719 153.6V150.84H632.119V173H637.719V160.76C637.719 157.2 639.679 155.28 642.719 155.28C645.679 155.28 647.639 157.2 647.639 160.76V173ZM679.965 161.92C679.965 154.92 674.965 150.48 668.565 150.48C662.165 150.48 657.165 154.92 657.165 161.92C657.165 168.88 662.005 173.36 668.405 173.36C674.845 173.36 679.965 168.88 679.965 161.92ZM662.845 161.92C662.845 157.48 665.525 155.36 668.485 155.36C671.445 155.36 674.205 157.48 674.205 161.92C674.205 166.32 671.365 168.48 668.405 168.48C665.405 168.48 662.845 166.32 662.845 161.92ZM688.113 173H694.193L698.233 157.52L702.273 173H708.313L714.793 150.84H709.433L705.513 167.68L701.353 150.84H695.433L691.193 167.72L687.273 150.84H681.593L688.113 173ZM731.394 173H737.474L741.514 157.52L745.554 173H751.594L758.074 150.84H752.714L748.794 167.68L744.634 150.84H738.714L734.474 167.72L730.554 150.84H724.874L731.394 173ZM761.104 173H766.704V160.76C766.704 157.2 768.664 155.28 771.704 155.28C774.664 155.28 776.624 157.2 776.624 160.76V173H782.224V160C782.224 153.88 778.584 150.52 773.584 150.52C770.624 150.52 768.144 151.72 766.704 153.6V143.4H761.104V173ZM797.069 155.08C799.949 155.08 802.269 156.92 802.349 159.84H791.829C792.269 156.8 794.389 155.08 797.069 155.08ZM807.589 166.04H801.549C800.829 167.52 799.509 168.72 797.109 168.72C794.309 168.72 792.069 166.88 791.789 163.6H807.989C808.109 162.88 808.149 162.16 808.149 161.44C808.149 154.84 803.629 150.48 797.229 150.48C790.669 150.48 786.109 154.92 786.109 161.92C786.109 168.88 790.789 173.36 797.229 173.36C802.709 173.36 806.389 170.12 807.589 166.04ZM827.757 173H833.357V160C833.357 153.88 829.677 150.52 824.517 150.52C821.677 150.52 819.277 151.72 817.837 153.6V150.84H812.237V173H817.837V160.76C817.837 157.2 819.797 155.28 822.837 155.28C825.797 155.28 827.757 157.2 827.757 160.76V173ZM852.253 173H858.333L862.373 157.52L866.413 173H872.453L878.933 150.84H873.573L869.653 167.68L865.493 150.84H859.573L855.333 167.72L851.413 150.84H845.733L852.253 173ZM891.483 155.08C894.363 155.08 896.683 156.92 896.763 159.84H886.243C886.683 156.8 888.803 155.08 891.483 155.08ZM902.003 166.04H895.963C895.243 167.52 893.923 168.72 891.523 168.72C888.723 168.72 886.483 166.88 886.203 163.6H902.403C902.523 162.88 902.563 162.16 902.563 161.44C902.563 154.84 898.043 150.48 891.643 150.48C885.083 150.48 880.523 154.92 880.523 161.92C880.523 168.88 885.203 173.36 891.643 173.36C897.123 173.36 900.803 170.12 902.003 166.04ZM916.182 173H921.782V143.4H916.182V173ZM925.875 161.84C925.875 168.76 930.355 173.36 935.955 173.36C939.475 173.36 941.995 171.68 943.315 169.76V173H948.955V150.84H943.315V154C941.995 152.16 939.555 150.48 935.995 150.48C930.355 150.48 925.875 154.92 925.875 161.84ZM943.315 161.92C943.315 166.12 940.515 168.44 937.435 168.44C934.435 168.44 931.595 166.04 931.595 161.84C931.595 157.64 934.435 155.4 937.435 155.4C940.515 155.4 943.315 157.72 943.315 161.92ZM975.344 150.84H969.704V163.04C969.704 166.6 967.784 168.52 964.744 168.52C961.784 168.52 959.824 166.6 959.824 163.04V150.84H954.224V163.84C954.224 169.92 957.944 173.28 963.104 173.28C965.864 173.28 968.304 172.08 969.704 170.2V173H975.344V150.84ZM996.389 173H1001.99V160C1001.99 153.88 998.309 150.52 993.149 150.52C990.309 150.52 987.909 151.72 986.469 153.6V150.84H980.869V173H986.469V160.76C986.469 157.2 988.429 155.28 991.469 155.28C994.429 155.28 996.389 157.2 996.389 160.76V173ZM1005.87 161.92C1005.87 168.88 1010.43 173.36 1016.83 173.36C1022.35 173.36 1026.07 170.24 1027.27 165.52H1021.23C1020.55 167.52 1019.11 168.56 1016.79 168.56C1013.67 168.56 1011.59 166.24 1011.59 161.92C1011.59 157.6 1013.67 155.24 1016.79 155.24C1019.11 155.24 1020.59 156.44 1021.23 158.32H1027.27C1026.07 153.36 1022.35 150.48 1016.83 150.48C1010.43 150.48 1005.87 154.96 1005.87 161.92ZM1031.38 173H1036.98V160.76C1036.98 157.2 1038.94 155.28 1041.98 155.28C1044.94 155.28 1046.9 157.2 1046.9 160.76V173H1052.5V160C1052.5 153.88 1048.86 150.52 1043.86 150.52C1040.9 150.52 1038.42 151.72 1036.98 153.6V143.4H1031.38V173ZM1059.7 163.92H1064.42L1065.06 144.6H1059.02L1059.7 163.92ZM1065.58 170C1065.58 168.16 1064.14 166.72 1062.18 166.72C1060.14 166.72 1058.7 168.16 1058.7 170C1058.7 171.84 1060.14 173.28 1062.18 173.28C1064.14 173.28 1065.58 171.84 1065.58 170Z" fill="white"/>
<path d="M606 224C606 220.686 608.686 218 612 218H854V266H612C608.686 266 606 263.314 606 260V224Z" fill="#F4F5F7"/>
<path d="M626.19 242.044L628.788 237.047H630.278L626.847 243.288V247H625.534V243.288L622.103 237.047H623.606L626.19 242.044ZM630.579 243.233C630.579 242.509 630.72 241.857 631.003 241.278C631.29 240.7 631.687 240.253 632.192 239.938C632.703 239.624 633.284 239.467 633.936 239.467C634.943 239.467 635.756 239.815 636.376 240.513C637 241.21 637.312 242.137 637.312 243.295V243.384C637.312 244.104 637.174 244.751 636.896 245.325C636.622 245.895 636.228 246.339 635.713 246.658C635.202 246.977 634.615 247.137 633.949 247.137C632.947 247.137 632.133 246.788 631.509 246.091C630.889 245.394 630.579 244.471 630.579 243.322V243.233ZM631.851 243.384C631.851 244.204 632.04 244.863 632.418 245.359C632.801 245.856 633.311 246.104 633.949 246.104C634.592 246.104 635.102 245.854 635.48 245.353C635.859 244.847 636.048 244.14 636.048 243.233C636.048 242.422 635.854 241.766 635.467 241.265C635.084 240.759 634.574 240.506 633.936 240.506C633.311 240.506 632.808 240.754 632.425 241.251C632.042 241.748 631.851 242.459 631.851 243.384ZM643.465 246.269C642.973 246.847 642.25 247.137 641.298 247.137C640.509 247.137 639.908 246.909 639.493 246.453C639.083 245.993 638.876 245.314 638.871 244.416V239.604H640.136V244.382C640.136 245.503 640.591 246.063 641.503 246.063C642.469 246.063 643.112 245.703 643.431 244.983V239.604H644.695V247H643.492L643.465 246.269ZM650.198 240.738C650.007 240.706 649.799 240.69 649.576 240.69C648.747 240.69 648.184 241.044 647.888 241.75V247H646.623V239.604H647.854L647.874 240.458C648.289 239.797 648.877 239.467 649.638 239.467C649.884 239.467 650.071 239.499 650.198 239.562V240.738ZM657.909 247.137C656.907 247.137 656.091 246.809 655.462 246.152C654.833 245.492 654.519 244.61 654.519 243.507V243.274C654.519 242.541 654.658 241.887 654.936 241.312C655.218 240.734 655.61 240.283 656.111 239.959C656.617 239.631 657.164 239.467 657.752 239.467C658.714 239.467 659.461 239.784 659.994 240.417C660.527 241.05 660.794 241.957 660.794 243.138V243.664H655.783C655.801 244.393 656.013 244.983 656.419 245.435C656.829 245.881 657.349 246.104 657.978 246.104C658.424 246.104 658.802 246.013 659.112 245.831C659.422 245.649 659.693 245.407 659.926 245.106L660.698 245.708C660.078 246.66 659.149 247.137 657.909 247.137ZM657.752 240.506C657.242 240.506 656.813 240.693 656.467 241.066C656.12 241.436 655.906 241.955 655.824 242.625H659.529V242.529C659.493 241.887 659.32 241.39 659.01 241.039C658.7 240.684 658.281 240.506 657.752 240.506ZM663.453 239.604L663.487 240.424C664.03 239.786 664.761 239.467 665.682 239.467C666.716 239.467 667.42 239.863 667.794 240.656C668.04 240.301 668.359 240.014 668.751 239.795C669.147 239.576 669.615 239.467 670.152 239.467C671.775 239.467 672.6 240.326 672.627 242.044V247H671.362V242.119C671.362 241.59 671.242 241.196 671 240.937C670.758 240.672 670.353 240.54 669.783 240.54C669.314 240.54 668.924 240.681 668.614 240.964C668.304 241.242 668.124 241.618 668.074 242.092V247H666.803V242.153C666.803 241.078 666.276 240.54 665.224 240.54C664.394 240.54 663.827 240.893 663.521 241.6V247H662.257V239.604H663.453ZM679.107 247C679.035 246.854 678.975 246.594 678.93 246.221C678.342 246.831 677.64 247.137 676.824 247.137C676.095 247.137 675.496 246.932 675.026 246.521C674.562 246.107 674.329 245.583 674.329 244.949C674.329 244.179 674.621 243.582 675.204 243.158C675.792 242.73 676.617 242.516 677.679 242.516H678.909V241.935C678.909 241.493 678.777 241.142 678.513 240.882C678.248 240.618 677.859 240.485 677.344 240.485C676.893 240.485 676.514 240.599 676.209 240.827C675.904 241.055 675.751 241.331 675.751 241.654H674.479C674.479 241.285 674.609 240.93 674.869 240.588C675.133 240.242 675.489 239.968 675.936 239.768C676.387 239.567 676.881 239.467 677.419 239.467C678.271 239.467 678.939 239.681 679.422 240.109C679.905 240.533 680.156 241.119 680.174 241.866V245.271C680.174 245.95 680.26 246.49 680.434 246.891V247H679.107ZM677.009 246.036C677.405 246.036 677.781 245.934 678.137 245.729C678.492 245.523 678.75 245.257 678.909 244.929V243.411H677.918C676.368 243.411 675.594 243.865 675.594 244.771C675.594 245.168 675.726 245.478 675.99 245.701C676.255 245.924 676.594 246.036 677.009 246.036ZM683.53 247H682.266V239.604H683.53V247ZM682.163 237.642C682.163 237.437 682.225 237.263 682.348 237.122C682.475 236.981 682.662 236.91 682.908 236.91C683.154 236.91 683.341 236.981 683.469 237.122C683.596 237.263 683.66 237.437 683.66 237.642C683.66 237.847 683.596 238.018 683.469 238.154C683.341 238.291 683.154 238.359 682.908 238.359C682.662 238.359 682.475 238.291 682.348 238.154C682.225 238.018 682.163 237.847 682.163 237.642ZM686.935 247H685.67V236.5H686.935V247ZM697.004 247C696.931 246.854 696.872 246.594 696.826 246.221C696.238 246.831 695.536 247.137 694.721 247.137C693.992 247.137 693.392 246.932 692.923 246.521C692.458 246.107 692.226 245.583 692.226 244.949C692.226 244.179 692.517 243.582 693.101 243.158C693.688 242.73 694.513 242.516 695.575 242.516H696.806V241.935C696.806 241.493 696.674 241.142 696.409 240.882C696.145 240.618 695.755 240.485 695.24 240.485C694.789 240.485 694.411 240.599 694.105 240.827C693.8 241.055 693.647 241.331 693.647 241.654H692.376C692.376 241.285 692.506 240.93 692.766 240.588C693.03 240.242 693.385 239.968 693.832 239.768C694.283 239.567 694.778 239.467 695.315 239.467C696.168 239.467 696.835 239.681 697.318 240.109C697.801 240.533 698.052 241.119 698.07 241.866V245.271C698.07 245.95 698.157 246.49 698.33 246.891V247H697.004ZM694.905 246.036C695.302 246.036 695.678 245.934 696.033 245.729C696.389 245.523 696.646 245.257 696.806 244.929V243.411H695.814C694.265 243.411 693.49 243.865 693.49 244.771C693.49 245.168 693.622 245.478 693.887 245.701C694.151 245.924 694.491 246.036 694.905 246.036ZM699.745 243.24C699.745 242.105 700.014 241.194 700.552 240.506C701.09 239.813 701.794 239.467 702.664 239.467C703.53 239.467 704.216 239.763 704.722 240.355V236.5H705.986V247H704.824L704.763 246.207C704.257 246.827 703.553 247.137 702.65 247.137C701.794 247.137 701.094 246.786 700.552 246.084C700.014 245.382 699.745 244.466 699.745 243.336V243.24ZM701.01 243.384C701.01 244.222 701.183 244.879 701.529 245.353C701.876 245.826 702.354 246.063 702.965 246.063C703.767 246.063 704.353 245.703 704.722 244.983V241.586C704.343 240.889 703.762 240.54 702.979 240.54C702.359 240.54 701.876 240.779 701.529 241.258C701.183 241.736 701.01 242.445 701.01 243.384ZM707.647 243.24C707.647 242.105 707.916 241.194 708.454 240.506C708.992 239.813 709.696 239.467 710.566 239.467C711.432 239.467 712.118 239.763 712.624 240.355V236.5H713.889V247H712.727L712.665 246.207C712.159 246.827 711.455 247.137 710.553 247.137C709.696 247.137 708.996 246.786 708.454 246.084C707.916 245.382 707.647 244.466 707.647 243.336V243.24ZM708.912 243.384C708.912 244.222 709.085 244.879 709.432 245.353C709.778 245.826 710.257 246.063 710.867 246.063C711.669 246.063 712.255 245.703 712.624 244.983V241.586C712.246 240.889 711.665 240.54 710.881 240.54C710.261 240.54 709.778 240.779 709.432 241.258C709.085 241.736 708.912 242.445 708.912 243.384ZM719.433 240.738C719.241 240.706 719.034 240.69 718.811 240.69C717.981 240.69 717.418 241.044 717.122 241.75V247H715.857V239.604H717.088L717.108 240.458C717.523 239.797 718.111 239.467 718.872 239.467C719.118 239.467 719.305 239.499 719.433 239.562V240.738ZM723.534 247.137C722.532 247.137 721.716 246.809 721.087 246.152C720.458 245.492 720.144 244.61 720.144 243.507V243.274C720.144 242.541 720.283 241.887 720.561 241.312C720.843 240.734 721.235 240.283 721.736 239.959C722.242 239.631 722.789 239.467 723.377 239.467C724.339 239.467 725.086 239.784 725.619 240.417C726.152 241.05 726.419 241.957 726.419 243.138V243.664H721.408C721.426 244.393 721.638 244.983 722.044 245.435C722.454 245.881 722.974 246.104 723.603 246.104C724.049 246.104 724.427 246.013 724.737 245.831C725.047 245.649 725.318 245.407 725.551 245.106L726.323 245.708C725.703 246.66 724.774 247.137 723.534 247.137ZM723.377 240.506C722.867 240.506 722.438 240.693 722.092 241.066C721.745 241.436 721.531 241.955 721.449 242.625H725.154V242.529C725.118 241.887 724.945 241.39 724.635 241.039C724.325 240.684 723.906 240.506 723.377 240.506ZM732.195 245.038C732.195 244.696 732.065 244.432 731.806 244.245C731.55 244.054 731.102 243.89 730.459 243.753C729.821 243.616 729.313 243.452 728.935 243.261C728.561 243.069 728.283 242.841 728.101 242.577C727.923 242.313 727.834 241.998 727.834 241.634C727.834 241.028 728.089 240.515 728.6 240.096C729.115 239.676 729.771 239.467 730.568 239.467C731.407 239.467 732.086 239.683 732.605 240.116C733.13 240.549 733.392 241.103 733.392 241.777H732.12C732.12 241.431 731.972 241.132 731.676 240.882C731.384 240.631 731.015 240.506 730.568 240.506C730.108 240.506 729.748 240.606 729.488 240.807C729.229 241.007 729.099 241.269 729.099 241.593C729.099 241.898 729.219 242.128 729.461 242.283C729.702 242.438 730.138 242.586 730.767 242.728C731.4 242.869 731.913 243.037 732.305 243.233C732.697 243.429 732.986 243.666 733.173 243.944C733.364 244.218 733.46 244.553 733.46 244.949C733.46 245.61 733.196 246.141 732.667 246.542C732.138 246.938 731.452 247.137 730.609 247.137C730.017 247.137 729.493 247.032 729.037 246.822C728.581 246.613 728.224 246.321 727.964 245.947C727.709 245.569 727.581 245.161 727.581 244.724H728.846C728.868 245.147 729.037 245.485 729.352 245.735C729.671 245.981 730.09 246.104 730.609 246.104C731.088 246.104 731.471 246.009 731.758 245.817C732.049 245.621 732.195 245.362 732.195 245.038ZM739.414 245.038C739.414 244.696 739.284 244.432 739.024 244.245C738.769 244.054 738.32 243.89 737.678 243.753C737.04 243.616 736.532 243.452 736.153 243.261C735.78 243.069 735.502 242.841 735.319 242.577C735.142 242.313 735.053 241.998 735.053 241.634C735.053 241.028 735.308 240.515 735.818 240.096C736.333 239.676 736.99 239.467 737.787 239.467C738.626 239.467 739.305 239.683 739.824 240.116C740.348 240.549 740.61 241.103 740.61 241.777H739.339C739.339 241.431 739.191 241.132 738.895 240.882C738.603 240.631 738.234 240.506 737.787 240.506C737.327 240.506 736.967 240.606 736.707 240.807C736.447 241.007 736.317 241.269 736.317 241.593C736.317 241.898 736.438 242.128 736.68 242.283C736.921 242.438 737.356 242.586 737.985 242.728C738.619 242.869 739.132 243.037 739.523 243.233C739.915 243.429 740.205 243.666 740.392 243.944C740.583 244.218 740.679 244.553 740.679 244.949C740.679 245.61 740.414 246.141 739.886 246.542C739.357 246.938 738.671 247.137 737.828 247.137C737.236 247.137 736.712 247.032 736.256 246.822C735.8 246.613 735.442 246.321 735.183 245.947C734.927 245.569 734.8 245.161 734.8 244.724H736.064C736.087 245.147 736.256 245.485 736.57 245.735C736.889 245.981 737.309 246.104 737.828 246.104C738.307 246.104 738.689 246.009 738.977 245.817C739.268 245.621 739.414 245.362 739.414 245.038Z" fill="#474A57"/>
<path d="M854 218H1014C1017.31 218 1020 220.686 1020 224V260C1020 263.314 1017.31 266 1014 266H854V218Z" fill="#0A286B"/>
<path d="M883.474 237.102C880.646 237.102 878.49 239.174 878.49 242.1C878.49 245.026 880.646 247.084 883.488 247.084C886.092 247.084 887.87 245.264 888.262 243.276V241.568H882.97V243.066H886.33C886.036 244.452 885.07 245.32 883.558 245.32C881.738 245.32 880.506 244.088 880.506 242.1C880.506 240.154 881.724 238.908 883.474 238.908C884.51 238.908 885.322 239.342 885.77 240.168H888.024C887.394 238.208 885.658 237.102 883.474 237.102ZM893.044 240.728C894.052 240.728 894.864 241.372 894.892 242.394H891.21C891.364 241.33 892.106 240.728 893.044 240.728ZM896.726 244.564H894.612C894.36 245.082 893.898 245.502 893.058 245.502C892.078 245.502 891.294 244.858 891.196 243.71H896.866C896.908 243.458 896.922 243.206 896.922 242.954C896.922 240.644 895.34 239.118 893.1 239.118C890.804 239.118 889.208 240.672 889.208 243.122C889.208 245.558 890.846 247.126 893.1 247.126C895.018 247.126 896.306 245.992 896.726 244.564ZM898.661 244.592C898.661 246.37 899.655 247 901.139 247H902.371V245.348H901.461C900.845 245.348 900.635 245.124 900.635 244.606V240.854H902.371V239.244H900.635V237.326H898.661V239.244H897.737V240.854H898.661V244.592ZM912.786 237.214H907.116V247H912.786V245.404H909.076V242.814H912.366V241.26H909.076V238.81H912.786V237.214ZM914.064 243.094C914.064 245.516 915.632 247.126 917.592 247.126C918.824 247.126 919.706 246.538 920.168 245.866V247H922.142V239.244H920.168V240.35C919.706 239.706 918.852 239.118 917.606 239.118C915.632 239.118 914.064 240.672 914.064 243.094ZM920.168 243.122C920.168 244.592 919.188 245.404 918.11 245.404C917.06 245.404 916.066 244.564 916.066 243.094C916.066 241.624 917.06 240.84 918.11 240.84C919.188 240.84 920.168 241.652 920.168 243.122ZM926.016 243.136C926.016 241.638 926.716 241.19 927.878 241.19H928.396V239.132C927.318 239.132 926.506 239.65 926.016 240.448V239.244H924.056V247H926.016V243.136ZM929.716 247H931.676V236.64H929.716V247ZM936.916 244.662L934.914 239.244H932.716L935.824 246.804L934.144 250.668H936.23L941.032 239.244H938.946L936.916 244.662ZM952.061 247H954.133L950.619 237.214H948.337L944.823 247H946.881L947.525 245.138H951.417L952.061 247ZM950.885 243.57H948.057L949.471 239.482L950.885 243.57ZM954.942 243.122C954.942 245.558 956.538 247.126 958.778 247.126C960.71 247.126 962.012 246.034 962.432 244.382H960.318C960.08 245.082 959.576 245.446 958.764 245.446C957.672 245.446 956.944 244.634 956.944 243.122C956.944 241.61 957.672 240.784 958.764 240.784C959.576 240.784 960.094 241.204 960.318 241.862H962.432C962.012 240.126 960.71 239.118 958.778 239.118C956.538 239.118 954.942 240.686 954.942 243.122ZM963.364 243.122C963.364 245.558 964.96 247.126 967.2 247.126C969.132 247.126 970.434 246.034 970.854 244.382H968.74C968.502 245.082 967.998 245.446 967.186 245.446C966.094 245.446 965.366 244.634 965.366 243.122C965.366 241.61 966.094 240.784 967.186 240.784C967.998 240.784 968.516 241.204 968.74 241.862H970.854C970.434 240.126 969.132 239.118 967.2 239.118C964.96 239.118 963.364 240.686 963.364 243.122ZM975.622 240.728C976.63 240.728 977.442 241.372 977.47 242.394H973.788C973.942 241.33 974.684 240.728 975.622 240.728ZM979.304 244.564H977.19C976.938 245.082 976.476 245.502 975.636 245.502C974.656 245.502 973.872 244.858 973.774 243.71H979.444C979.486 243.458 979.5 243.206 979.5 242.954C979.5 240.644 977.918 239.118 975.678 239.118C973.382 239.118 971.786 240.672 971.786 243.122C971.786 245.558 973.424 247.126 975.678 247.126C977.596 247.126 978.884 245.992 979.304 244.564ZM986.951 244.788C986.895 241.946 982.597 242.828 982.597 241.414C982.597 240.966 982.975 240.672 983.703 240.672C984.473 240.672 984.949 241.078 985.005 241.68H986.881C986.769 240.14 985.635 239.118 983.759 239.118C981.841 239.118 980.693 240.154 980.693 241.442C980.693 244.284 985.075 243.402 985.075 244.788C985.075 245.236 984.655 245.586 983.885 245.586C983.101 245.586 982.555 245.138 982.485 244.55H980.511C980.595 245.992 981.953 247.126 983.899 247.126C985.789 247.126 986.951 246.118 986.951 244.788ZM994.58 244.788C994.524 241.946 990.226 242.828 990.226 241.414C990.226 240.966 990.604 240.672 991.332 240.672C992.102 240.672 992.578 241.078 992.634 241.68H994.51C994.398 240.14 993.264 239.118 991.388 239.118C989.47 239.118 988.322 240.154 988.322 241.442C988.322 244.284 992.704 243.402 992.704 244.788C992.704 245.236 992.284 245.586 991.514 245.586C990.73 245.586 990.184 245.138 990.114 244.55H988.14C988.224 245.992 989.582 247.126 991.528 247.126C993.418 247.126 994.58 246.118 994.58 244.788Z" fill="white"/>
<defs>
<clipPath id="clip0">
<rect width="120" height="120" fill="white" transform="translate(344 108)"/>
</clipPath>
<clipPath id="clip1">
<rect width="64" height="24" fill="white" transform="translate(372 140)"/>
</clipPath>
</defs>
</svg>
