<svg width="32" height="33" viewBox="0 0 32 33" fill="none" xmlns="http://www.w3.org/2000/svg">
<path opacity="0.1" fill-rule="evenodd" clip-rule="evenodd" d="M0 16.5578C0 7.91759 7.16344 0.91333 16 0.91333C24.8366 0.91333 32 7.91759 32 16.5578C32 25.198 24.8366 32.2022 16 32.2022C7.16344 32.2022 0 25.198 0 16.5578Z" fill="#0F6EFF"/>
<path fill-rule="evenodd" clip-rule="evenodd" d="M15.5208 13.6294L15.5544 14.1707L14.9948 14.1044C12.9579 13.8503 11.1784 12.9886 9.66756 11.5414L8.92891 10.8233L8.73865 11.3536C8.33575 12.5357 8.59316 13.784 9.43253 14.6237C9.8802 15.0877 9.77948 15.154 9.00725 14.8778C8.73865 14.7894 8.50363 14.7231 8.48124 14.7562C8.4029 14.8336 8.6715 15.8389 8.88414 16.2366C9.17513 16.789 9.76828 17.3303 10.4174 17.6507L10.9658 17.9048L10.3167 17.9159C9.68994 17.9159 9.66756 17.9269 9.73471 18.1589C9.95854 18.877 10.8427 19.6393 11.8276 19.9707L12.5214 20.2027L11.9171 20.5562C11.0218 21.0644 9.96973 21.3517 8.91772 21.3738C8.41409 21.3848 8 21.429 8 21.4621C8 21.5726 9.36538 22.1913 10.16 22.4343C12.5438 23.1524 15.3753 22.8431 17.5017 21.6168C19.0126 20.744 20.5235 19.0096 21.2286 17.3303C21.6091 16.4355 21.9896 14.8004 21.9896 14.016C21.9896 13.5079 22.0232 13.4416 22.6499 12.834C23.0192 12.4804 23.3662 12.0938 23.4333 11.9833C23.5452 11.7734 23.534 11.7734 22.9633 11.9612C22.012 12.2926 21.8777 12.2484 22.3477 11.7513C22.6947 11.3978 23.1088 10.757 23.1088 10.5692C23.1088 10.5361 22.9409 10.5913 22.7506 10.6907C22.5492 10.8012 22.1015 10.9669 21.7658 11.0663L21.1614 11.2541L20.613 10.8896C20.3108 10.6907 19.8856 10.4698 19.6617 10.4035C19.0909 10.2488 18.218 10.2709 17.7032 10.4477C16.3042 10.9448 15.4201 12.2263 15.5208 13.6294Z" fill="#0F6EFF"/>
</svg>
