<svg width="32" height="33" viewBox="0 0 32 33" fill="none" xmlns="http://www.w3.org/2000/svg">
<path opacity="0.1" fill-rule="evenodd" clip-rule="evenodd" d="M0 16.5578C0 7.91759 7.16344 0.91333 16 0.91333C24.8366 0.91333 32 7.91759 32 16.5578C32 25.198 24.8366 32.2022 16 32.2022C7.16344 32.2022 0 25.198 0 16.5578Z" fill="#0F6EFF"/>
<path fill-rule="evenodd" clip-rule="evenodd" d="M22.6679 11.1796C23.4022 11.3766 23.9805 11.9572 24.1768 12.6944C24.5335 14.0306 24.5335 16.8186 24.5335 16.8186C24.5335 16.8186 24.5335 19.6064 24.1768 20.9427C23.9805 21.6799 23.4022 22.2605 22.6679 22.4576C21.3371 22.8156 16.0001 22.8156 16.0001 22.8156C16.0001 22.8156 10.6632 22.8156 9.3323 22.4576C8.59795 22.2605 8.01962 21.6799 7.82335 20.9427C7.4668 19.6064 7.4668 16.8186 7.4668 16.8186C7.4668 16.8186 7.4668 14.0306 7.82335 12.6944C8.01962 11.9572 8.59795 11.3766 9.3323 11.1796C10.6632 10.8215 16.0001 10.8215 16.0001 10.8215C16.0001 10.8215 21.3371 10.8215 22.6679 11.1796ZM14.4001 14.4718V19.6867L18.6668 17.0794L14.4001 14.4718Z" fill="#0F6EFF"/>
</svg>
